<?xml version="1.0" encoding="UTF-8" standalone="no" ?>
<!DOCTYPE svg PUBLIC "-//W3C//DTD SVG 1.1//EN" "http://www.w3.org/Graphics/SVG/1.1/DTD/svg11.dtd">
<svg xmlns="http://www.w3.org/2000/svg" xmlns:xlink="http://www.w3.org/1999/xlink" version="1.1" width="1080" height="1080" viewBox="0 0 1080 1080" xml:space="preserve">
<defs>
</defs>
<g transform="matrix(1 0 0 1 540 540)" id="5033a5dc-312b-4e19-a6a4-58f042412207"  >
<rect style="stroke: none; stroke-width: 1; stroke-dasharray: none; stroke-linecap: butt; stroke-dashoffset: 0; stroke-linejoin: miter; stroke-miterlimit: 4; fill: rgb(255,255,255); fill-rule: nonzero; opacity: 1; visibility: hidden;" vector-effect="non-scaling-stroke"  x="-540" y="-540" rx="0" ry="0" width="1080" height="1080" />
</g>
<g transform="matrix(1 0 0 1 540 540)" id="53e583f1-12f5-4d1f-8000-1c9e039cf3f9"  >
</g>
<g transform="matrix(0.27 0 0 0.27 540 540)"  >
<path style="stroke: none; stroke-width: 1; stroke-dasharray: none; stroke-linecap: butt; stroke-dashoffset: 0; stroke-linejoin: miter; stroke-miterlimit: 4; fill: rgb(0,0,0); fill-rule: nonzero; opacity: 1;"  transform=" translate(-1970, -305)" d="M 594.79 308.2 C 594.79 471.96 462.93999999999994 604.72 300.28999999999996 604.72 C 137.64 604.72 5.8 472 5.8 308.2 C 5.8 144.39999999999998 137.65 11.69 300.29 11.69 C 462.93000000000006 11.69 594.79 144.44 594.79 308.2 M 917.86 308.2 C 917.86 462.36 851.9300000000001 587.3199999999999 770.61 587.3199999999999 C 689.29 587.3199999999999 623.36 462.31999999999994 623.36 308.19999999999993 C 623.36 154.07999999999993 689.29 29.08 770.61 29.08 C 851.9300000000001 29.08 917.86 154.07999999999998 917.86 308.2 M 1050 308.2 C 1050 446.32 1026.81 558.28 998.21 558.28 C 969.6100000000001 558.28 946.4200000000001 446.28 946.4200000000001 308.19999999999993 C 946.4200000000001 170.1199999999999 969.6100000000001 58.11999999999992 998.22 58.11999999999992 C 1026.83 58.11999999999992 1050 170.09 1050 308.2 M 1862.77 37.4 L 1863.59 37.22 L 1863.59 30.869999999999997 L 1696.11 30.869999999999997 L 1540.6 396.37 L 1385.09 30.870000000000005 L 1204.61 30.870000000000005 L 1204.61 37.220000000000006 L 1205.4199999999998 37.400000000000006 C 1235.9899999999998 44.300000000000004 1251.5099999999998 54.59 1251.5099999999998 91.7 L 1251.5099999999998 526.15 C 1251.5099999999998 563.26 1235.9299999999998 573.55 1205.3599999999997 580.4499999999999 L 1204.5499999999997 580.6299999999999 L 1204.5499999999997 587 L 1327 587 L 1327 580.65 L 1326.19 580.47 C 1295.6200000000001 573.57 1280.1000000000001 563.28 1280.1000000000001 526.1700000000001 L 1280.1000000000001 116.9 L 1479.87 587 L 1491.1999999999998 587 L 1696.7899999999997 103.79000000000002 L 1696.7899999999997 536.9 C 1694.1699999999998 566.2099999999999 1678.7899999999997 575.26 1651.1099999999997 581.51 L 1650.2899999999997 581.7 L 1650.2899999999997 588 L 1863.5899999999997 588 L 1863.5899999999997 581.7 L 1862.7699999999998 581.51 C 1835.0599999999997 575.26 1819.3099999999997 566.21 1816.6899999999998 536.9 L 1816.5499999999997 91.69999999999999 L 1816.6899999999998 91.69999999999999 C 1816.6899999999998 54.58999999999999 1832.2099999999998 44.29999999999999 1862.7699999999998 37.39999999999999 M 1960.1999999999998 325.2 C 1963.6899999999998 247.14 1991.7199999999998 190.79999999999998 2038.7599999999998 189.82999999999998 C 2053.27 190.07 2065.4399999999996 194.82999999999998 2074.8999999999996 203.98999999999998 C 2094.9999999999995 223.49999999999997 2104.45 264.27 2102.99 325.2 z M 1958.09 347.2 L 2208.09 347.2 L 2208.09 346.15 C 2207.38 286.46 2190.09 240.02999999999997 2156.75 208.14999999999998 C 2127.93 180.59999999999997 2085.26 165.43999999999997 2040.44 165.43999999999997 L 2039.44 165.43999999999997 C 2016.18 165.43999999999997 1987.65 171.07999999999996 1967.3500000000001 181.29999999999995 C 1944.2400000000002 191.99999999999994 1923.8600000000001 207.99999999999994 1906.9 228.99999999999994 C 1879.6000000000001 262.8299999999999 1863.0600000000002 308.54999999999995 1859.0400000000002 359.92999999999995 C 1858.91 361.46999999999997 1858.8000000000002 363.00999999999993 1858.6900000000003 364.54999999999995 C 1858.5800000000004 366.09 1858.5100000000002 367.46999999999997 1858.4400000000003 368.93999999999994 C 1858.084218406565 376.1641632609297 1857.9641545784511 383.39800890479665 1858.0800000000004 390.63000000000005 C 1860.79 507 1923.65 600 2035.3 600 C 2133.3 600 2190.37 528.36 2204.6 432.2 L 2197.41 429.67 C 2172.41 481.35 2127.5099999999998 512.6700000000001 2076.41 508.85 C 2006.6499999999999 503.63 1953.2099999999998 432.90000000000003 1958.06 347.22 M 2490.75 504.90000000000003 C 2482.55 524.35 2465.44 535.0500000000001 2442.51 535.0500000000001 C 2419.5800000000004 535.0500000000001 2398.6200000000003 519.3100000000001 2383.73 490.71000000000004 C 2367.73 460.01000000000005 2359.31 416.61 2359.31 365.20000000000005 C 2359.31 258.20000000000005 2392.59 188.99000000000004 2444.1 188.99000000000004 C 2465.67 188.99000000000004 2482.65 199.69000000000003 2490.75 218.36000000000004 z M 2656.59 581.1800000000001 C 2626.02 573.95 2610.5 563.1800000000001 2610.5 524.1800000000001 L 2610.5 5.28 L 2424.77 60 L 2424.77 66.7 L 2425.91 66.61 C 2451.5299999999997 64.54 2468.91 68.08 2479 77.4 C 2486.9 84.7 2490.75 95.9 2490.75 111.66 L 2490.75 182.8 C 2472.44 171.11 2450.66 165.42000000000002 2424.23 165.42000000000002 C 2370.63 165.42000000000002 2321.64 187.99 2286.31 228.98000000000002 C 2249.48 271.70000000000005 2230.0099999999998 330.08000000000004 2230.0099999999998 397.79 C 2230 518.72 2289.53 600 2378.13 600 C 2429.96 600 2471.6600000000003 571.6 2490.75 523.7 L 2490.75 588 L 2657.4 588 L 2657.4 581.34 z M 2815.88 75.85000000000008 C 2815.88 38.09000000000008 2787.4100000000003 9.610000000000085 2749.6400000000003 9.610000000000085 C 2712.05 9.610000000000085 2682.6400000000003 38.710000000000086 2682.6400000000003 75.85000000000008 C 2682.6400000000003 112.99000000000007 2712.0800000000004 142.0900000000001 2749.6400000000003 142.0900000000001 C 2787.4100000000003 142.0900000000001 2815.88 113.61000000000008 2815.88 75.8500000000001 M 2859.7200000000003 581.1800000000001 C 2829.15 573.95 2813.63 563.1800000000001 2813.63 524.1800000000001 L 2813.5 524.1800000000001 L 2813.5 166.65 L 2646.84 214.5 L 2646.84 221 L 2647.84 221.09 C 2683.9 224.3 2693.77 236.72 2693.77 278.86 L 2693.77 588 L 2860.57 588 L 2860.57 581.34 z M 3286.7700000000004 581.1800000000001 C 3256.2000000000003 573.95 3240.6800000000003 563.1800000000001 3240.6800000000003 524.1800000000001 L 3240.6800000000003 166.65 L 3082 212.92 L 3082 219.44 L 3082.94 219.54 C 3112.42 222.64 3120.94 235.76999999999998 3120.94 278.1 L 3120.94 504.1 C 3111.11 523.5500000000001 3092.67 535.1 3070.33 535.88 C 3034.1 535.88 3014.15 511.40999999999997 3014.15 466.98 L 3014.15 166.66 L 2847.4900000000002 214.51 L 2847.4900000000002 221 L 2848.4900000000002 221.09 C 2884.55 224.29 2894.4300000000003 236.71 2894.4300000000003 278.86 L 2894.4300000000003 470.13 C 2894.3446265316747 483.48240978986416 2895.506336607466 496.8136187864085 2897.9 509.9499999999999 L 2900.9 523 C 2915.01 573.56 2951.98 600 3009.9 600 C 3058.96 600 3101.96 569.63 3120.9 522.11 L 3120.9 588.11 L 3287.56 588.11 L 3287.56 581.45 z M 3934.2 588 L 3934.2 581.33 L 3933.39 581.14 C 3900.22 573.49 3887.2999999999997 559.0699999999999 3887.2999999999997 529.71 L 3887.2999999999997 286.51000000000005 C 3887.2999999999997 210.68000000000006 3844.7099999999996 165.42000000000004 3773.37 165.42000000000004 C 3721.37 165.42000000000004 3677.52 195.47000000000006 3660.64 242.28000000000003 C 3647.23 192.68000000000004 3608.64 165.42000000000002 3551.58 165.42000000000002 C 3501.46 165.42000000000002 3462.18 191.87 3445.33 236.55 L 3445.33 166.68 L 3278.67 212.57 L 3278.67 219.10999999999999 L 3279.67 219.2 C 3315.3 222.35999999999999 3325.6 235.14 3325.6 276.2 L 3325.6 588 L 3481.1 588 L 3481.1 581.34 L 3480.2799999999997 581.14 C 3453.8199999999997 574.92 3445.2799999999997 563.58 3445.2799999999997 534.48 L 3445.2799999999997 255.72 C 3452.2799999999997 239.37 3466.39 220 3494.2799999999997 220 C 3528.9199999999996 220 3546.4799999999996 244 3546.4799999999996 291.28 L 3546.4799999999996 588 L 3702.0199999999995 588 L 3702.0199999999995 581.34 L 3701.1999999999994 581.14 C 3674.7399999999993 574.92 3666.1999999999994 563.58 3666.1999999999994 534.48 L 3666.1999999999994 286.48 C 3666.2679226548685 277.20709496140364 3665.5318336374307 267.9457567783702 3663.9999999999995 258.79999999999995 C 3671.4199999999996 241.03 3686.3399999999997 220 3715.3699999999994 220 C 3750.4999999999995 220 3767.5699999999993 243.31 3767.5699999999993 291.28 L 3767.5699999999993 588 z" stroke-linecap="round" />
</g>
</svg>